<?xml version="1.0" encoding="UTF-8" standalone="no"?>
<!DOCTYPE svg PUBLIC "-//W3C//DTD SVG 1.1//EN"
 "http://www.w3.org/Graphics/SVG/1.1/DTD/svg11.dtd">
<!-- Generated by graphviz version 2.36.0 (20140111.2315)
 -->
<!-- Title: G Pages: 1 -->
<svg width="836pt" height="2940pt"
 viewBox="0.00 0.00 836.00 2940.00" xmlns="http://www.w3.org/2000/svg" xmlns:xlink="http://www.w3.org/1999/xlink">
<g id="graph0" class="graph" transform="scale(1 1) rotate(0) translate(4 2936)">
<title>G</title>
<polygon fill="white" stroke="none" points="-4,4 -4,-2936 832,-2936 832,4 -4,4"/>
<g id="clust1" class="cluster"><title>cluster_Global</title>
<path fill="none" stroke="gray" d="M236,-44C236,-44 808,-44 808,-44 814,-44 820,-50 820,-56 820,-56 820,-2912 820,-2912 820,-2918 814,-2924 808,-2924 808,-2924 236,-2924 236,-2924 230,-2924 224,-2918 224,-2912 224,-2912 224,-56 224,-56 224,-50 230,-44 236,-44"/>
<text text-anchor="middle" x="522" y="-2911.2" font-family="Times,serif" font-size="11.00" fill="gray">Global</text>
</g>
<!-- \\XmlDomConstruct -->
<g id="node1" class="node"><title>\\XmlDomConstruct</title>
<polygon fill="none" stroke="black" points="690,-466 572,-466 572,-430 690,-430 690,-466"/>
<text text-anchor="middle" x="631" y="-445.2" font-family="Courier,monospace" font-size="11.00">XmlDomConstruct</text>
</g>
<!-- \\DOMDocument -->
<g id="node56" class="node"><title>\\DOMDocument</title>
<ellipse fill="none" stroke="black" cx="305" cy="-18" rx="71.4873" ry="18"/>
<text text-anchor="middle" x="305" y="-14.3" font-family="Times,serif" font-size="14.00" fill="gray">\DOMDocument</text>
</g>
<!-- \\XmlDomConstruct&#45;&gt;\\DOMDocument -->
<g id="edge1" class="edge"><title>\\XmlDomConstruct&#45;&gt;\\DOMDocument</title>
<path fill="none" stroke="black" d="M571.825,-455.31C532.351,-456.845 481.755,-451.574 450,-421 325.858,-301.474 492.988,-168.357 378,-40 376.038,-37.8095 373.864,-35.8342 371.532,-34.053"/>
<polygon fill="none" stroke="black" points="373.391,-31.0875 363.065,-28.7151 369.657,-37.009 373.391,-31.0875"/>
</g>
<!-- \\WideImage_InvalidImageHandleException -->
<g id="node2" class="node"><title>\\WideImage_InvalidImageHandleException</title>
<polygon fill="none" stroke="black" points="764,-2842 498,-2842 498,-2806 764,-2806 764,-2842"/>
<text text-anchor="middle" x="631" y="-2821.2" font-family="Courier,monospace" font-size="11.00">WideImage_InvalidImageHandleException</text>
</g>
<!-- \\WideImage_Exception -->
<g id="node44" class="node"><title>\\WideImage_Exception</title>
<polygon fill="none" stroke="black" points="377.5,-2410 232.5,-2410 232.5,-2374 377.5,-2374 377.5,-2410"/>
<text text-anchor="middle" x="305" y="-2389.2" font-family="Courier,monospace" font-size="11.00">WideImage_Exception</text>
</g>
<!-- \\WideImage_InvalidImageHandleException&#45;&gt;\\WideImage_Exception -->
<g id="edge2" class="edge"><title>\\WideImage_InvalidImageHandleException&#45;&gt;\\WideImage_Exception</title>
<path fill="none" stroke="black" d="M498,-2821.18C480.538,-2816.14 463.903,-2808.45 450,-2797 330.867,-2698.87 310.24,-2494.94 306.711,-2420.22"/>
<polygon fill="none" stroke="black" points="310.206,-2420.02 306.305,-2410.17 303.212,-2420.3 310.206,-2420.02"/>
</g>
<!-- \\WideImage_InvalidImageSourceException -->
<g id="node3" class="node"><title>\\WideImage_InvalidImageSourceException</title>
<polygon fill="none" stroke="black" points="764,-2788 498,-2788 498,-2752 764,-2752 764,-2788"/>
<text text-anchor="middle" x="631" y="-2767.2" font-family="Courier,monospace" font-size="11.00">WideImage_InvalidImageSourceException</text>
</g>
<!-- \\WideImage_InvalidImageSourceException&#45;&gt;\\WideImage_Exception -->
<g id="edge3" class="edge"><title>\\WideImage_InvalidImageSourceException&#45;&gt;\\WideImage_Exception</title>
<path fill="none" stroke="black" d="M497.565,-2766.31C480.368,-2761.36 463.923,-2753.92 450,-2743 344.945,-2660.59 315.974,-2488.6 308.465,-2420.58"/>
<polygon fill="none" stroke="black" points="311.904,-2419.81 307.401,-2410.22 304.941,-2420.52 311.904,-2419.81"/>
</g>
<!-- \\WideImage_GDFunctionResultException -->
<g id="node4" class="node"><title>\\WideImage_GDFunctionResultException</title>
<polygon fill="none" stroke="black" points="757.5,-2734 504.5,-2734 504.5,-2698 757.5,-2698 757.5,-2734"/>
<text text-anchor="middle" x="631" y="-2713.2" font-family="Courier,monospace" font-size="11.00">WideImage_GDFunctionResultException</text>
</g>
<!-- \\WideImage_GDFunctionResultException&#45;&gt;\\WideImage_Exception -->
<g id="edge4" class="edge"><title>\\WideImage_GDFunctionResultException&#45;&gt;\\WideImage_Exception</title>
<path fill="none" stroke="black" d="M504.218,-2713.1C484.781,-2708.3 465.91,-2700.7 450,-2689 358.33,-2621.58 322.231,-2480.05 310.648,-2419.95"/>
<polygon fill="none" stroke="black" points="314.076,-2419.24 308.821,-2410.04 307.192,-2420.51 314.076,-2419.24"/>
</g>
<!-- \\WideImage -->
<g id="node5" class="node"><title>\\WideImage</title>
<polygon fill="none" stroke="black" points="669.5,-2680 592.5,-2680 592.5,-2644 669.5,-2644 669.5,-2680"/>
<text text-anchor="middle" x="631" y="-2659.2" font-family="Courier,monospace" font-size="11.00">WideImage</text>
</g>
<!-- \\WideImage_UnsupportedFormatException -->
<g id="node6" class="node"><title>\\WideImage_UnsupportedFormatException</title>
<polygon fill="none" stroke="black" points="761,-2626 501,-2626 501,-2590 761,-2590 761,-2626"/>
<text text-anchor="middle" x="631" y="-2605.2" font-family="Courier,monospace" font-size="11.00">WideImage_UnsupportedFormatException</text>
</g>
<!-- \\WideImage_UnsupportedFormatException&#45;&gt;\\WideImage_Exception -->
<g id="edge5" class="edge"><title>\\WideImage_UnsupportedFormatException&#45;&gt;\\WideImage_Exception</title>
<path fill="none" stroke="black" d="M500.898,-2601.05C483.023,-2596.6 465.501,-2590.17 450,-2581 384.622,-2542.31 338.788,-2461.48 318.211,-2419.16"/>
<polygon fill="none" stroke="black" points="321.317,-2417.54 313.865,-2410.01 314.994,-2420.55 321.317,-2417.54"/>
</g>
<!-- \\WideImage_MapperFactory -->
<g id="node7" class="node"><title>\\WideImage_MapperFactory</title>
<polygon fill="none" stroke="black" points="717,-2572 545,-2572 545,-2536 717,-2536 717,-2572"/>
<text text-anchor="start" x="597" y="-2557.2" font-family="Courier,monospace" font-size="11.00">«abstract»</text>
<text text-anchor="start" x="553" y="-2545.2" font-family="Courier,monospace" font-size="11.00">WideImage_MapperFactory</text>
</g>
<!-- \\WideImage_UnknownImageOperationException -->
<g id="node8" class="node"><title>\\WideImage_UnknownImageOperationException</title>
<polygon fill="none" stroke="black" points="774.5,-2518 487.5,-2518 487.5,-2482 774.5,-2482 774.5,-2518"/>
<text text-anchor="middle" x="631" y="-2497.2" font-family="Courier,monospace" font-size="11.00">WideImage_UnknownImageOperationException</text>
</g>
<!-- \\WideImage_UnknownImageOperationException&#45;&gt;\\WideImage_Exception -->
<g id="edge6" class="edge"><title>\\WideImage_UnknownImageOperationException&#45;&gt;\\WideImage_Exception</title>
<path fill="none" stroke="black" d="M487.344,-2483.54C474.569,-2480.58 461.955,-2477.1 450,-2473 409.974,-2459.26 368.256,-2434.46 340.09,-2415.9"/>
<polygon fill="none" stroke="black" points="341.7,-2412.77 331.441,-2410.12 337.809,-2418.59 341.7,-2412.77"/>
</g>
<!-- \\WideImage_OperationFactory -->
<g id="node9" class="node"><title>\\WideImage_OperationFactory</title>
<polygon fill="none" stroke="black" points="727,-2464 535,-2464 535,-2428 727,-2428 727,-2464"/>
<text text-anchor="middle" x="631" y="-2443.2" font-family="Courier,monospace" font-size="11.00">WideImage_OperationFactory</text>
</g>
<!-- \\WideImage_InvalidImageDimensionException -->
<g id="node10" class="node"><title>\\WideImage_InvalidImageDimensionException</title>
<polygon fill="none" stroke="black" points="774.5,-2410 487.5,-2410 487.5,-2374 774.5,-2374 774.5,-2410"/>
<text text-anchor="middle" x="631" y="-2389.2" font-family="Courier,monospace" font-size="11.00">WideImage_InvalidImageDimensionException</text>
</g>
<!-- \\WideImage_InvalidImageDimensionException&#45;&gt;\\WideImage_Exception -->
<g id="edge7" class="edge"><title>\\WideImage_InvalidImageDimensionException&#45;&gt;\\WideImage_Exception</title>
<path fill="none" stroke="black" d="M487.417,-2392C453.25,-2392 417.913,-2392 387.606,-2392"/>
<polygon fill="none" stroke="black" points="387.529,-2388.5 377.529,-2392 387.529,-2395.5 387.529,-2388.5"/>
</g>
<!-- \\WideImage_UnknownErrorWhileMappingException -->
<g id="node11" class="node"><title>\\WideImage_UnknownErrorWhileMappingException</title>
<polygon fill="none" stroke="black" points="784.5,-2356 477.5,-2356 477.5,-2320 784.5,-2320 784.5,-2356"/>
<text text-anchor="middle" x="631" y="-2335.2" font-family="Courier,monospace" font-size="11.00">WideImage_UnknownErrorWhileMappingException</text>
</g>
<!-- \\WideImage_UnknownErrorWhileMappingException&#45;&gt;\\WideImage_Exception -->
<g id="edge8" class="edge"><title>\\WideImage_UnknownErrorWhileMappingException&#45;&gt;\\WideImage_Exception</title>
<path fill="none" stroke="black" d="M505.479,-2356.07C486.866,-2358.95 467.917,-2361.98 450,-2365 429.739,-2368.42 407.926,-2372.37 387.559,-2376.17"/>
<polygon fill="none" stroke="black" points="386.871,-2372.74 377.689,-2378.03 388.163,-2379.62 386.871,-2372.74"/>
</g>
<!-- \\WideImage_Image -->
<g id="node12" class="node"><title>\\WideImage_Image</title>
<polygon fill="none" stroke="black" points="364,-574 246,-574 246,-538 364,-538 364,-574"/>
<text text-anchor="start" x="271" y="-559.2" font-family="Courier,monospace" font-size="11.00">«abstract»</text>
<text text-anchor="start" x="254" y="-547.2" font-family="Courier,monospace" font-size="11.00">WideImage_Image</text>
</g>
<!-- \\WideImage_Font_TTF -->
<g id="node13" class="node"><title>\\WideImage_Font_TTF</title>
<polygon fill="none" stroke="black" points="700,-2302 562,-2302 562,-2266 700,-2266 700,-2302"/>
<text text-anchor="middle" x="631" y="-2281.2" font-family="Courier,monospace" font-size="11.00">WideImage_Font_TTF</text>
</g>
<!-- \\WideImage_Font_GDF -->
<g id="node14" class="node"><title>\\WideImage_Font_GDF</title>
<polygon fill="none" stroke="black" points="700,-2248 562,-2248 562,-2212 700,-2212 700,-2248"/>
<text text-anchor="middle" x="631" y="-2227.2" font-family="Courier,monospace" font-size="11.00">WideImage_Font_GDF</text>
</g>
<!-- \\WideImage_Font_PS -->
<g id="node15" class="node"><title>\\WideImage_Font_PS</title>
<polygon fill="none" stroke="black" points="696.5,-2194 565.5,-2194 565.5,-2158 696.5,-2158 696.5,-2194"/>
<text text-anchor="middle" x="631" y="-2173.2" font-family="Courier,monospace" font-size="11.00">WideImage_Font_PS</text>
</g>
<!-- \\WideImage_Operation_Flip -->
<g id="node16" class="node"><title>\\WideImage_Operation_Flip</title>
<polygon fill="none" stroke="black" points="720.5,-2140 541.5,-2140 541.5,-2104 720.5,-2104 720.5,-2140"/>
<text text-anchor="middle" x="631" y="-2119.2" font-family="Courier,monospace" font-size="11.00">WideImage_Operation_Flip</text>
</g>
<!-- \\WideImage_Operation_Merge -->
<g id="node17" class="node"><title>\\WideImage_Operation_Merge</title>
<polygon fill="none" stroke="black" points="723.5,-2086 538.5,-2086 538.5,-2050 723.5,-2050 723.5,-2086"/>
<text text-anchor="middle" x="631" y="-2065.2" font-family="Courier,monospace" font-size="11.00">WideImage_Operation_Merge</text>
</g>
<!-- \\WideImage_Operation_InvalidFitMethodException -->
<g id="node18" class="node"><title>\\WideImage_Operation_InvalidFitMethodException</title>
<polygon fill="none" stroke="black" points="791,-2032 471,-2032 471,-1996 791,-1996 791,-2032"/>
<text text-anchor="middle" x="631" y="-2011.2" font-family="Courier,monospace" font-size="11.00">WideImage_Operation_InvalidFitMethodException</text>
</g>
<!-- \\WideImage_Operation_InvalidFitMethodException&#45;&gt;\\WideImage_Exception -->
<g id="edge9" class="edge"><title>\\WideImage_Operation_InvalidFitMethodException&#45;&gt;\\WideImage_Exception</title>
<path fill="none" stroke="black" d="M470.847,-2027.94C463.472,-2031.61 456.464,-2035.93 450,-2041 344.945,-2123.41 315.974,-2295.4 308.465,-2363.42"/>
<polygon fill="none" stroke="black" points="304.941,-2363.48 307.401,-2373.78 311.904,-2364.19 304.941,-2363.48"/>
</g>
<!-- \\WideImage_Operation_InvalidResizeDimensionException -->
<g id="node19" class="node"><title>\\WideImage_Operation_InvalidResizeDimensionException</title>
<polygon fill="none" stroke="black" points="811.5,-1978 450.5,-1978 450.5,-1942 811.5,-1942 811.5,-1978"/>
<text text-anchor="middle" x="631" y="-1957.2" font-family="Courier,monospace" font-size="11.00">WideImage_Operation_InvalidResizeDimensionException</text>
</g>
<!-- \\WideImage_Operation_InvalidResizeDimensionException&#45;&gt;\\WideImage_Exception -->
<g id="edge10" class="edge"><title>\\WideImage_Operation_InvalidResizeDimensionException&#45;&gt;\\WideImage_Exception</title>
<path fill="none" stroke="black" d="M462.311,-1978.22C458.02,-1980.87 453.902,-1983.79 450,-1987 330.867,-2085.13 310.24,-2289.06 306.711,-2363.78"/>
<polygon fill="none" stroke="black" points="303.212,-2363.7 306.305,-2373.83 310.206,-2363.98 303.212,-2363.7"/>
</g>
<!-- \\WideImage_Operation_Resize -->
<g id="node20" class="node"><title>\\WideImage_Operation_Resize</title>
<polygon fill="none" stroke="black" points="727,-1924 535,-1924 535,-1888 727,-1888 727,-1924"/>
<text text-anchor="middle" x="631" y="-1903.2" font-family="Courier,monospace" font-size="11.00">WideImage_Operation_Resize</text>
</g>
<!-- \\WideImage_Operation_AutoCrop -->
<g id="node21" class="node"><title>\\WideImage_Operation_AutoCrop</title>
<polygon fill="none" stroke="black" points="734,-1870 528,-1870 528,-1834 734,-1834 734,-1870"/>
<text text-anchor="middle" x="631" y="-1849.2" font-family="Courier,monospace" font-size="11.00">WideImage_Operation_AutoCrop</text>
</g>
<!-- \\WideImage_Operation_CopyChannelsPalette -->
<g id="node22" class="node"><title>\\WideImage_Operation_CopyChannelsPalette</title>
<polygon fill="none" stroke="black" points="771,-1816 491,-1816 491,-1780 771,-1780 771,-1816"/>
<text text-anchor="middle" x="631" y="-1795.2" font-family="Courier,monospace" font-size="11.00">WideImage_Operation_CopyChannelsPalette</text>
</g>
<!-- \\WideImage_Operation_Unsharp -->
<g id="node23" class="node"><title>\\WideImage_Operation_Unsharp</title>
<polygon fill="none" stroke="black" points="730.5,-1762 531.5,-1762 531.5,-1726 730.5,-1726 730.5,-1762"/>
<text text-anchor="middle" x="631" y="-1741.2" font-family="Courier,monospace" font-size="11.00">WideImage_Operation_Unsharp</text>
</g>
<!-- \\WideImage_Operation_AsGrayscale -->
<g id="node24" class="node"><title>\\WideImage_Operation_AsGrayscale</title>
<polygon fill="none" stroke="black" points="744,-1708 518,-1708 518,-1672 744,-1672 744,-1708"/>
<text text-anchor="middle" x="631" y="-1687.2" font-family="Courier,monospace" font-size="11.00">WideImage_Operation_AsGrayscale</text>
</g>
<!-- \\WideImage_Operation_ApplyConvolution -->
<g id="node25" class="node"><title>\\WideImage_Operation_ApplyConvolution</title>
<polygon fill="none" stroke="black" points="761,-1654 501,-1654 501,-1618 761,-1618 761,-1654"/>
<text text-anchor="middle" x="631" y="-1633.2" font-family="Courier,monospace" font-size="11.00">WideImage_Operation_ApplyConvolution</text>
</g>
<!-- \\WideImage_Operation_CopyChannelsTrueColor -->
<g id="node26" class="node"><title>\\WideImage_Operation_CopyChannelsTrueColor</title>
<polygon fill="none" stroke="black" points="777.5,-1600 484.5,-1600 484.5,-1564 777.5,-1564 777.5,-1600"/>
<text text-anchor="middle" x="631" y="-1579.2" font-family="Courier,monospace" font-size="11.00">WideImage_Operation_CopyChannelsTrueColor</text>
</g>
<!-- \\WideImage_Operation_AsNegative -->
<g id="node27" class="node"><title>\\WideImage_Operation_AsNegative</title>
<polygon fill="none" stroke="black" points="740.5,-1546 521.5,-1546 521.5,-1510 740.5,-1510 740.5,-1546"/>
<text text-anchor="middle" x="631" y="-1525.2" font-family="Courier,monospace" font-size="11.00">WideImage_Operation_AsNegative</text>
</g>
<!-- \\WideImage_Operation_ApplyFilter -->
<g id="node28" class="node"><title>\\WideImage_Operation_ApplyFilter</title>
<polygon fill="none" stroke="black" points="744,-1492 518,-1492 518,-1456 744,-1456 744,-1492"/>
<text text-anchor="middle" x="631" y="-1471.2" font-family="Courier,monospace" font-size="11.00">WideImage_Operation_ApplyFilter</text>
</g>
<!-- \\WideImage_Operation_Mirror -->
<g id="node29" class="node"><title>\\WideImage_Operation_Mirror</title>
<polygon fill="none" stroke="black" points="727,-1438 535,-1438 535,-1402 727,-1402 727,-1438"/>
<text text-anchor="middle" x="631" y="-1417.2" font-family="Courier,monospace" font-size="11.00">WideImage_Operation_Mirror</text>
</g>
<!-- \\WideImage_Operation_AddNoise -->
<g id="node30" class="node"><title>\\WideImage_Operation_AddNoise</title>
<polygon fill="none" stroke="black" points="734,-1384 528,-1384 528,-1348 734,-1348 734,-1384"/>
<text text-anchor="middle" x="631" y="-1363.2" font-family="Courier,monospace" font-size="11.00">WideImage_Operation_AddNoise</text>
</g>
<!-- \\WideImage_Operation_RoundCorners -->
<g id="node31" class="node"><title>\\WideImage_Operation_RoundCorners</title>
<polygon fill="none" stroke="black" points="747.5,-1330 514.5,-1330 514.5,-1294 747.5,-1294 747.5,-1330"/>
<text text-anchor="middle" x="631" y="-1309.2" font-family="Courier,monospace" font-size="11.00">WideImage_Operation_RoundCorners</text>
</g>
<!-- \\WideImage_Operation_CorrectGamma -->
<g id="node32" class="node"><title>\\WideImage_Operation_CorrectGamma</title>
<polygon fill="none" stroke="black" points="747.5,-1276 514.5,-1276 514.5,-1240 747.5,-1240 747.5,-1276"/>
<text text-anchor="middle" x="631" y="-1255.2" font-family="Courier,monospace" font-size="11.00">WideImage_Operation_CorrectGamma</text>
</g>
<!-- \\WideImage_Operation_ApplyMask -->
<g id="node33" class="node"><title>\\WideImage_Operation_ApplyMask</title>
<polygon fill="none" stroke="black" points="737,-1222 525,-1222 525,-1186 737,-1186 737,-1222"/>
<text text-anchor="middle" x="631" y="-1201.2" font-family="Courier,monospace" font-size="11.00">WideImage_Operation_ApplyMask</text>
</g>
<!-- \\WideImage_Operation_Rotate -->
<g id="node34" class="node"><title>\\WideImage_Operation_Rotate</title>
<polygon fill="none" stroke="black" points="727,-1168 535,-1168 535,-1132 727,-1132 727,-1168"/>
<text text-anchor="middle" x="631" y="-1147.2" font-family="Courier,monospace" font-size="11.00">WideImage_Operation_Rotate</text>
</g>
<!-- \\WideImage_Operation_ResizeCanvas -->
<g id="node35" class="node"><title>\\WideImage_Operation_ResizeCanvas</title>
<polygon fill="none" stroke="black" points="747.5,-1114 514.5,-1114 514.5,-1078 747.5,-1078 747.5,-1114"/>
<text text-anchor="middle" x="631" y="-1093.2" font-family="Courier,monospace" font-size="11.00">WideImage_Operation_ResizeCanvas</text>
</g>
<!-- \\WideImage_Operation_GetMask -->
<g id="node36" class="node"><title>\\WideImage_Operation_GetMask</title>
<polygon fill="none" stroke="black" points="730.5,-1060 531.5,-1060 531.5,-1024 730.5,-1024 730.5,-1060"/>
<text text-anchor="middle" x="631" y="-1039.2" font-family="Courier,monospace" font-size="11.00">WideImage_Operation_GetMask</text>
</g>
<!-- \\WideImage_Operation_Crop -->
<g id="node37" class="node"><title>\\WideImage_Operation_Crop</title>
<polygon fill="none" stroke="black" points="720.5,-1006 541.5,-1006 541.5,-970 720.5,-970 720.5,-1006"/>
<text text-anchor="middle" x="631" y="-985.2" font-family="Courier,monospace" font-size="11.00">WideImage_Operation_Crop</text>
</g>
<!-- \\WideImage_vendor_de77_TGA -->
<g id="node38" class="node"><title>\\WideImage_vendor_de77_TGA</title>
<polygon fill="none" stroke="black" points="723.5,-952 538.5,-952 538.5,-916 723.5,-916 723.5,-952"/>
<text text-anchor="middle" x="631" y="-931.2" font-family="Courier,monospace" font-size="11.00">WideImage_vendor_de77_TGA</text>
</g>
<!-- \\WideImage_vendor_de77_BMP -->
<g id="node39" class="node"><title>\\WideImage_vendor_de77_BMP</title>
<polygon fill="none" stroke="black" points="723.5,-898 538.5,-898 538.5,-862 723.5,-862 723.5,-898"/>
<text text-anchor="middle" x="631" y="-877.2" font-family="Courier,monospace" font-size="11.00">WideImage_vendor_de77_BMP</text>
</g>
<!-- \\WideImage_NoFontException -->
<g id="node40" class="node"><title>\\WideImage_NoFontException</title>
<polygon fill="none" stroke="black" points="723.5,-844 538.5,-844 538.5,-808 723.5,-808 723.5,-844"/>
<text text-anchor="middle" x="631" y="-823.2" font-family="Courier,monospace" font-size="11.00">WideImage_NoFontException</text>
</g>
<!-- \\WideImage_NoFontException&#45;&gt;\\WideImage_Exception -->
<g id="edge11" class="edge"><title>\\WideImage_NoFontException&#45;&gt;\\WideImage_Exception</title>
<path fill="none" stroke="black" d="M538.402,-818.034C506.199,-820.279 472.475,-829.24 450,-853 341.917,-967.265 311.028,-2162.96 306.592,-2363.53"/>
<polygon fill="none" stroke="black" points="303.087,-2363.75 306.369,-2373.82 310.085,-2363.9 303.087,-2363.75"/>
</g>
<!-- \\WideImage_InvalidFontFileException -->
<g id="node41" class="node"><title>\\WideImage_InvalidFontFileException</title>
<polygon fill="none" stroke="black" points="754,-790 508,-790 508,-754 754,-754 754,-790"/>
<text text-anchor="middle" x="631" y="-769.2" font-family="Courier,monospace" font-size="11.00">WideImage_InvalidFontFileException</text>
</g>
<!-- \\WideImage_InvalidFontFileException&#45;&gt;\\WideImage_Exception -->
<g id="edge12" class="edge"><title>\\WideImage_InvalidFontFileException&#45;&gt;\\WideImage_Exception</title>
<path fill="none" stroke="black" d="M507.971,-768.348C486.091,-773.331 465.392,-782.677 450,-799 338.112,-917.661 310.311,-2160.08 306.492,-2363.81"/>
<polygon fill="none" stroke="black" points="302.99,-2363.92 306.305,-2373.99 309.988,-2364.05 302.99,-2363.92"/>
</g>
<!-- \\WideImage_InvalidCanvasMethodException -->
<g id="node42" class="node"><title>\\WideImage_InvalidCanvasMethodException</title>
<polygon fill="none" stroke="black" points="767.5,-736 494.5,-736 494.5,-700 767.5,-700 767.5,-736"/>
<text text-anchor="middle" x="631" y="-715.2" font-family="Courier,monospace" font-size="11.00">WideImage_InvalidCanvasMethodException</text>
</g>
<!-- \\WideImage_InvalidCanvasMethodException&#45;&gt;\\WideImage_Exception -->
<g id="edge13" class="edge"><title>\\WideImage_InvalidCanvasMethodException&#45;&gt;\\WideImage_Exception</title>
<path fill="none" stroke="black" d="M494.266,-718.082C477.552,-723.563 462.121,-732.107 450,-745 334.352,-868.01 309.645,-2156.2 306.404,-2363.82"/>
<polygon fill="none" stroke="black" points="302.903,-2363.86 306.25,-2373.92 309.902,-2363.97 302.903,-2363.86"/>
</g>
<!-- \\WideImage_Canvas -->
<g id="node43" class="node"><title>\\WideImage_Canvas</title>
<polygon fill="none" stroke="black" points="693.5,-682 568.5,-682 568.5,-646 693.5,-646 693.5,-682"/>
<text text-anchor="middle" x="631" y="-661.2" font-family="Courier,monospace" font-size="11.00">WideImage_Canvas</text>
</g>
<!-- \\RuntimeException -->
<g id="node57" class="node"><title>\\RuntimeException</title>
<ellipse fill="none" stroke="black" cx="80" cy="-2392" rx="79.0865" ry="18"/>
<text text-anchor="middle" x="80" y="-2388.3" font-family="Times,serif" font-size="14.00" fill="gray">\RuntimeException</text>
</g>
<!-- \\WideImage_Exception&#45;&gt;\\RuntimeException -->
<g id="edge14" class="edge"><title>\\WideImage_Exception&#45;&gt;\\RuntimeException</title>
<path fill="none" stroke="black" d="M232.214,-2392C212.3,-2392 190.441,-2392 169.685,-2392"/>
<polygon fill="none" stroke="black" points="169.597,-2388.5 159.597,-2392 169.597,-2395.5 169.597,-2388.5"/>
</g>
<!-- \\WideImage_InvalidCoordinateException -->
<g id="node45" class="node"><title>\\WideImage_InvalidCoordinateException</title>
<polygon fill="none" stroke="black" points="761,-2896 501,-2896 501,-2860 761,-2860 761,-2896"/>
<text text-anchor="middle" x="631" y="-2875.2" font-family="Courier,monospace" font-size="11.00">WideImage_InvalidCoordinateException</text>
</g>
<!-- \\WideImage_InvalidCoordinateException&#45;&gt;\\WideImage_Exception -->
<g id="edge15" class="edge"><title>\\WideImage_InvalidCoordinateException&#45;&gt;\\WideImage_Exception</title>
<path fill="none" stroke="black" d="M500.821,-2876.56C482.238,-2871.49 464.525,-2863.43 450,-2851 316.976,-2737.16 305.253,-2501.96 305.369,-2420.51"/>
<polygon fill="none" stroke="black" points="308.873,-2420.09 305.453,-2410.06 301.873,-2420.03 308.873,-2420.09"/>
</g>
<!-- \\WideImage_Coordinate -->
<g id="node46" class="node"><title>\\WideImage_Coordinate</title>
<polygon fill="none" stroke="black" points="707,-574 555,-574 555,-538 707,-538 707,-574"/>
<text text-anchor="middle" x="631" y="-553.2" font-family="Courier,monospace" font-size="11.00">WideImage_Coordinate</text>
</g>
<!-- \\WideImage_TrueColorImage -->
<g id="node47" class="node"><title>\\WideImage_TrueColorImage</title>
<polygon fill="none" stroke="black" points="720.5,-520 541.5,-520 541.5,-484 720.5,-484 720.5,-520"/>
<text text-anchor="middle" x="631" y="-499.2" font-family="Courier,monospace" font-size="11.00">WideImage_TrueColorImage</text>
</g>
<!-- \\WideImage_TrueColorImage&#45;&gt;\\WideImage_Image -->
<g id="edge16" class="edge"><title>\\WideImage_TrueColorImage&#45;&gt;\\WideImage_Image</title>
<path fill="none" stroke="black" d="M541.091,-514.68C512.021,-519.001 479.601,-524.006 450,-529 425.201,-533.183 398.077,-538.163 374.124,-542.7"/>
<polygon fill="none" stroke="black" points="373.237,-539.305 364.068,-544.613 374.546,-546.182 373.237,-539.305"/>
</g>
<!-- \\WideImage_PaletteImage -->
<g id="node48" class="node"><title>\\WideImage_PaletteImage</title>
<polygon fill="none" stroke="black" points="713.5,-628 548.5,-628 548.5,-592 713.5,-592 713.5,-628"/>
<text text-anchor="middle" x="631" y="-607.2" font-family="Courier,monospace" font-size="11.00">WideImage_PaletteImage</text>
</g>
<!-- \\WideImage_PaletteImage&#45;&gt;\\WideImage_Image -->
<g id="edge17" class="edge"><title>\\WideImage_PaletteImage&#45;&gt;\\WideImage_Image</title>
<path fill="none" stroke="black" d="M548.36,-598.397C517.501,-593.842 482.094,-588.414 450,-583 425.201,-578.817 398.077,-573.837 374.124,-569.3"/>
<polygon fill="none" stroke="black" points="374.546,-565.818 364.068,-567.387 373.237,-572.695 374.546,-565.818"/>
</g>
<!-- \\WideImage_Mapper_TGA -->
<g id="node49" class="node"><title>\\WideImage_Mapper_TGA</title>
<polygon fill="none" stroke="black" points="707,-412 555,-412 555,-376 707,-376 707,-412"/>
<text text-anchor="middle" x="631" y="-391.2" font-family="Courier,monospace" font-size="11.00">WideImage_Mapper_TGA</text>
</g>
<!-- \\WideImage_Mapper_GD -->
<g id="node50" class="node"><title>\\WideImage_Mapper_GD</title>
<polygon fill="none" stroke="black" points="703.5,-358 558.5,-358 558.5,-322 703.5,-322 703.5,-358"/>
<text text-anchor="middle" x="631" y="-337.2" font-family="Courier,monospace" font-size="11.00">WideImage_Mapper_GD</text>
</g>
<!-- \\WideImage_Mapper_JPEG -->
<g id="node51" class="node"><title>\\WideImage_Mapper_JPEG</title>
<polygon fill="none" stroke="black" points="710,-304 552,-304 552,-268 710,-268 710,-304"/>
<text text-anchor="middle" x="631" y="-283.2" font-family="Courier,monospace" font-size="11.00">WideImage_Mapper_JPEG</text>
</g>
<!-- \\WideImage_Mapper_PNG -->
<g id="node52" class="node"><title>\\WideImage_Mapper_PNG</title>
<polygon fill="none" stroke="black" points="707,-250 555,-250 555,-214 707,-214 707,-250"/>
<text text-anchor="middle" x="631" y="-229.2" font-family="Courier,monospace" font-size="11.00">WideImage_Mapper_PNG</text>
</g>
<!-- \\WideImage_Mapper_GD2 -->
<g id="node53" class="node"><title>\\WideImage_Mapper_GD2</title>
<polygon fill="none" stroke="black" points="707,-196 555,-196 555,-160 707,-160 707,-196"/>
<text text-anchor="middle" x="631" y="-175.2" font-family="Courier,monospace" font-size="11.00">WideImage_Mapper_GD2</text>
</g>
<!-- \\WideImage_Mapper_BMP -->
<g id="node54" class="node"><title>\\WideImage_Mapper_BMP</title>
<polygon fill="none" stroke="black" points="707,-142 555,-142 555,-106 707,-106 707,-142"/>
<text text-anchor="middle" x="631" y="-121.2" font-family="Courier,monospace" font-size="11.00">WideImage_Mapper_BMP</text>
</g>
<!-- \\WideImage_Mapper_GIF -->
<g id="node55" class="node"><title>\\WideImage_Mapper_GIF</title>
<polygon fill="none" stroke="black" points="707,-88 555,-88 555,-52 707,-52 707,-88"/>
<text text-anchor="middle" x="631" y="-67.2" font-family="Courier,monospace" font-size="11.00">WideImage_Mapper_GIF</text>
</g>
</g>
</svg>
